<mxfile host="app.diagrams.net" modified="2023-10-21T20:38:05.817Z" agent="Mozilla/5.0 (Windows NT 10.0; Win64; x64; rv:109.0) Gecko/20100101 Firefox/118.0" etag="e0cedNHQnrSGi_h5c8dc" version="22.0.6" type="device">
  <diagram id="C5RBs43oDa-KdzZeNtuy" name="Page-1">
    <mxGraphModel dx="2037" dy="1803" grid="1" gridSize="10" guides="1" tooltips="1" connect="1" arrows="1" fold="1" page="1" pageScale="1" pageWidth="827" pageHeight="1169" math="0" shadow="0">
      <root>
        <mxCell id="WIyWlLk6GJQsqaUBKTNV-0" />
        <mxCell id="WIyWlLk6GJQsqaUBKTNV-1" parent="WIyWlLk6GJQsqaUBKTNV-0" />
        <mxCell id="QcD5hRHQzZDBA_C3fKLL-0" value="Computador Gestor" style="swimlane;whiteSpace=wrap;html=1;" vertex="1" parent="WIyWlLk6GJQsqaUBKTNV-1">
          <mxGeometry x="160" y="-20" width="310" height="640" as="geometry" />
        </mxCell>
        <mxCell id="QcD5hRHQzZDBA_C3fKLL-4" value="" style="edgeStyle=orthogonalEdgeStyle;rounded=0;orthogonalLoop=1;jettySize=auto;html=1;" edge="1" parent="QcD5hRHQzZDBA_C3fKLL-0" source="WIyWlLk6GJQsqaUBKTNV-3" target="QcD5hRHQzZDBA_C3fKLL-3">
          <mxGeometry relative="1" as="geometry" />
        </mxCell>
        <mxCell id="WIyWlLk6GJQsqaUBKTNV-3" value="&lt;div&gt;Excel com todas as informações de técnicos e projetos&lt;/div&gt;" style="rounded=1;whiteSpace=wrap;html=1;fontSize=12;glass=0;strokeWidth=1;shadow=0;" parent="QcD5hRHQzZDBA_C3fKLL-0" vertex="1">
          <mxGeometry x="74" y="50" width="168" height="50" as="geometry" />
        </mxCell>
        <mxCell id="QcD5hRHQzZDBA_C3fKLL-2" style="edgeStyle=orthogonalEdgeStyle;rounded=0;orthogonalLoop=1;jettySize=auto;html=1;exitX=0.5;exitY=1;exitDx=0;exitDy=0;" edge="1" parent="QcD5hRHQzZDBA_C3fKLL-0" source="WIyWlLk6GJQsqaUBKTNV-3" target="WIyWlLk6GJQsqaUBKTNV-3">
          <mxGeometry relative="1" as="geometry" />
        </mxCell>
        <mxCell id="QcD5hRHQzZDBA_C3fKLL-9" value="" style="edgeStyle=orthogonalEdgeStyle;rounded=0;orthogonalLoop=1;jettySize=auto;html=1;entryX=0.75;entryY=0;entryDx=0;entryDy=0;" edge="1" parent="QcD5hRHQzZDBA_C3fKLL-0" target="QcD5hRHQzZDBA_C3fKLL-8">
          <mxGeometry relative="1" as="geometry">
            <mxPoint x="110" y="210" as="sourcePoint" />
            <mxPoint x="110" y="350" as="targetPoint" />
            <Array as="points">
              <mxPoint x="200" y="210" />
              <mxPoint x="200" y="280" />
              <mxPoint x="203" y="280" />
            </Array>
          </mxGeometry>
        </mxCell>
        <mxCell id="QcD5hRHQzZDBA_C3fKLL-3" value="Heurística atribui projetos a técnicos" style="rounded=1;whiteSpace=wrap;html=1;fontSize=12;glass=0;strokeWidth=1;shadow=0;" vertex="1" parent="QcD5hRHQzZDBA_C3fKLL-0">
          <mxGeometry x="88" y="150" width="140" height="60" as="geometry" />
        </mxCell>
        <mxCell id="QcD5hRHQzZDBA_C3fKLL-13" value="" style="edgeStyle=orthogonalEdgeStyle;rounded=0;orthogonalLoop=1;jettySize=auto;html=1;" edge="1" parent="QcD5hRHQzZDBA_C3fKLL-0" source="QcD5hRHQzZDBA_C3fKLL-8" target="QcD5hRHQzZDBA_C3fKLL-12">
          <mxGeometry relative="1" as="geometry" />
        </mxCell>
        <mxCell id="QcD5hRHQzZDBA_C3fKLL-8" value="Ordenação das tarefas para cada funcionário,tendo em conta previsão do custo das tarefas" style="rounded=1;whiteSpace=wrap;html=1;fontSize=12;glass=0;strokeWidth=1;shadow=0;" vertex="1" parent="QcD5hRHQzZDBA_C3fKLL-0">
          <mxGeometry x="68" y="436" width="180" height="60" as="geometry" />
        </mxCell>
        <mxCell id="QcD5hRHQzZDBA_C3fKLL-12" value="Geração dos Exceis para os técnicos, ou atualização" style="rounded=1;whiteSpace=wrap;html=1;fontSize=12;glass=0;strokeWidth=1;shadow=0;" vertex="1" parent="QcD5hRHQzZDBA_C3fKLL-0">
          <mxGeometry x="68" y="539" width="180" height="60" as="geometry" />
        </mxCell>
        <mxCell id="QcD5hRHQzZDBA_C3fKLL-27" style="edgeStyle=orthogonalEdgeStyle;rounded=0;orthogonalLoop=1;jettySize=auto;html=1;" edge="1" parent="QcD5hRHQzZDBA_C3fKLL-0" source="QcD5hRHQzZDBA_C3fKLL-24" target="QcD5hRHQzZDBA_C3fKLL-8">
          <mxGeometry relative="1" as="geometry">
            <Array as="points">
              <mxPoint x="100" y="430" />
              <mxPoint x="110" y="430" />
            </Array>
          </mxGeometry>
        </mxCell>
        <mxCell id="QcD5hRHQzZDBA_C3fKLL-24" value="Leitura dos exceis dos técnicos, caso existam" style="rounded=1;whiteSpace=wrap;html=1;" vertex="1" parent="QcD5hRHQzZDBA_C3fKLL-0">
          <mxGeometry x="40" y="350" width="120" height="60" as="geometry" />
        </mxCell>
        <mxCell id="QcD5hRHQzZDBA_C3fKLL-30" style="edgeStyle=orthogonalEdgeStyle;rounded=0;orthogonalLoop=1;jettySize=auto;html=1;entryX=0.5;entryY=0;entryDx=0;entryDy=0;" edge="1" parent="QcD5hRHQzZDBA_C3fKLL-0" source="QcD5hRHQzZDBA_C3fKLL-25" target="QcD5hRHQzZDBA_C3fKLL-24">
          <mxGeometry relative="1" as="geometry" />
        </mxCell>
        <mxCell id="QcD5hRHQzZDBA_C3fKLL-25" value="Gestor clica para reatualizar atribuições" style="rounded=1;whiteSpace=wrap;html=1;" vertex="1" parent="QcD5hRHQzZDBA_C3fKLL-0">
          <mxGeometry x="40" y="250" width="120" height="60" as="geometry" />
        </mxCell>
        <mxCell id="QcD5hRHQzZDBA_C3fKLL-1" value="Computador Técnico" style="swimlane;whiteSpace=wrap;html=1;" vertex="1" parent="WIyWlLk6GJQsqaUBKTNV-1">
          <mxGeometry x="470" y="-20" width="200" height="640" as="geometry" />
        </mxCell>
        <mxCell id="QcD5hRHQzZDBA_C3fKLL-14" value="Preenchimento enquanto concluem tarefas" style="rounded=1;whiteSpace=wrap;html=1;fontSize=12;glass=0;strokeWidth=1;shadow=0;" vertex="1" parent="QcD5hRHQzZDBA_C3fKLL-1">
          <mxGeometry x="10" y="466" width="180" height="60" as="geometry" />
        </mxCell>
        <mxCell id="QcD5hRHQzZDBA_C3fKLL-5" value="Website" style="swimlane;whiteSpace=wrap;html=1;" vertex="1" parent="WIyWlLk6GJQsqaUBKTNV-1">
          <mxGeometry x="-80" y="-20" width="240" height="640" as="geometry" />
        </mxCell>
        <mxCell id="QcD5hRHQzZDBA_C3fKLL-6" value="Visualização da carga que cada técnico tem" style="rounded=1;whiteSpace=wrap;html=1;fontSize=12;glass=0;strokeWidth=1;shadow=0;" vertex="1" parent="QcD5hRHQzZDBA_C3fKLL-5">
          <mxGeometry x="40" y="110" width="140" height="60" as="geometry" />
        </mxCell>
        <mxCell id="QcD5hRHQzZDBA_C3fKLL-19" value="" style="edgeStyle=orthogonalEdgeStyle;rounded=0;orthogonalLoop=1;jettySize=auto;html=1;entryX=0.5;entryY=1;entryDx=0;entryDy=0;" edge="1" parent="QcD5hRHQzZDBA_C3fKLL-5" source="QcD5hRHQzZDBA_C3fKLL-10">
          <mxGeometry relative="1" as="geometry">
            <mxPoint x="120" y="300" as="targetPoint" />
          </mxGeometry>
        </mxCell>
        <mxCell id="QcD5hRHQzZDBA_C3fKLL-10" value="Visualização de calendário de realização de tarefas" style="rounded=1;whiteSpace=wrap;html=1;fontSize=12;glass=0;strokeWidth=1;shadow=0;" vertex="1" parent="QcD5hRHQzZDBA_C3fKLL-5">
          <mxGeometry x="30" y="406" width="180" height="60" as="geometry" />
        </mxCell>
        <mxCell id="QcD5hRHQzZDBA_C3fKLL-20" value="Alterar informações sobre disponibilidade de técnicos" style="rounded=1;whiteSpace=wrap;html=1;" vertex="1" parent="QcD5hRHQzZDBA_C3fKLL-5">
          <mxGeometry x="60" y="200" width="120" height="60" as="geometry" />
        </mxCell>
        <mxCell id="QcD5hRHQzZDBA_C3fKLL-7" value="" style="edgeStyle=orthogonalEdgeStyle;rounded=0;orthogonalLoop=1;jettySize=auto;html=1;" edge="1" parent="WIyWlLk6GJQsqaUBKTNV-1" source="QcD5hRHQzZDBA_C3fKLL-3" target="QcD5hRHQzZDBA_C3fKLL-6">
          <mxGeometry relative="1" as="geometry" />
        </mxCell>
        <mxCell id="QcD5hRHQzZDBA_C3fKLL-11" value="" style="edgeStyle=orthogonalEdgeStyle;rounded=0;orthogonalLoop=1;jettySize=auto;html=1;" edge="1" parent="WIyWlLk6GJQsqaUBKTNV-1" source="QcD5hRHQzZDBA_C3fKLL-8" target="QcD5hRHQzZDBA_C3fKLL-10">
          <mxGeometry relative="1" as="geometry" />
        </mxCell>
        <mxCell id="QcD5hRHQzZDBA_C3fKLL-15" value="" style="edgeStyle=orthogonalEdgeStyle;rounded=0;orthogonalLoop=1;jettySize=auto;html=1;entryX=0.5;entryY=1;entryDx=0;entryDy=0;" edge="1" parent="WIyWlLk6GJQsqaUBKTNV-1" source="QcD5hRHQzZDBA_C3fKLL-12" target="QcD5hRHQzZDBA_C3fKLL-14">
          <mxGeometry relative="1" as="geometry">
            <mxPoint x="570" y="509" as="targetPoint" />
            <Array as="points">
              <mxPoint x="571" y="549" />
            </Array>
          </mxGeometry>
        </mxCell>
        <mxCell id="QcD5hRHQzZDBA_C3fKLL-16" style="edgeStyle=orthogonalEdgeStyle;rounded=0;orthogonalLoop=1;jettySize=auto;html=1;entryX=1;entryY=0.5;entryDx=0;entryDy=0;exitX=0.5;exitY=0;exitDx=0;exitDy=0;" edge="1" parent="WIyWlLk6GJQsqaUBKTNV-1" source="QcD5hRHQzZDBA_C3fKLL-14" target="QcD5hRHQzZDBA_C3fKLL-8">
          <mxGeometry relative="1" as="geometry">
            <mxPoint x="590" y="406" as="sourcePoint" />
            <Array as="points">
              <mxPoint x="570" y="426" />
            </Array>
          </mxGeometry>
        </mxCell>
        <mxCell id="QcD5hRHQzZDBA_C3fKLL-22" style="edgeStyle=orthogonalEdgeStyle;rounded=0;orthogonalLoop=1;jettySize=auto;html=1;entryX=0;entryY=0.75;entryDx=0;entryDy=0;" edge="1" parent="WIyWlLk6GJQsqaUBKTNV-1" source="QcD5hRHQzZDBA_C3fKLL-20" target="QcD5hRHQzZDBA_C3fKLL-3">
          <mxGeometry relative="1" as="geometry" />
        </mxCell>
      </root>
    </mxGraphModel>
  </diagram>
</mxfile>
